PathFileType	4	(X/Y/Z)	C:/Users/beibeiliu/ov580/test_trc\sequence.4_training_dense_left.trc
DataRate	CameraRate	NumFrames	NumMarkers	Units	OrigDataRate	OrigDataStartFrame	OrigNumFrames
120	120	12	19	mm	120	1	82
Frame#	Time	ThumbCMC			ThumbMCP			ThumbIP			ThumbTip			IndexMCP			IndexPIP			IndexTip			MiddleMCP			MiddlePIP			MiddleTip			RingMCP			RingPIP			RingTip			PinkyMCP			PinkyPIP			PinkyTip			BackHand1			BackHand2			BackHand3	
		X0	Y0	Z0	X1	Y1	Z1	X2	Y2	Z2	X3	Y3	Z3	X4	Y4	Z4	X5	Y5	Z5	X6	Y6	Z6	X7	Y7	Z7	X8	Y8	Z8	X9	Y9	Z9	X10	Y10	Z10	X11	Y11	Z11	X12	Y12	Z12	X13	Y13	Z13	X14	Y14	Z14	X15	Y15	Z15	X16	Y16	Z16	X17	Y17	Z17	X18	Y18	Z18	
0	0	-141.175	30.3176	96.4848	-128.53	15.2069	75.6192	-119.923	7.08756	53.6361	-120.445	-3.63473	30.2501	-152.725	32.643	28.4805	-148.236	22.871	6.29149	-144.682	3.06784	-15.8766	-172.331	30.0107	21.4756	-173.412	19.11	-3.21438	-174.135	-1.84973	-22.1155	-189.652	26.3168	26.3521	-191.323	18.9659	7.37761	-191.398	5.07952	-11.2583	-209.963	20.7152	40.7106	-211.363	14.8235	25.221	-208.785	6.32287	4.33171	-190.763	42.5943	69.0895	-191.853	48.0902	99.5187	-166.267	49.8794	82.469	
1	0.00833333	-143.582	30.1947	94.5424	-128.197	16.7234	74.6789	-125.651	8.50365	54.0916	-121.55	-2.98345	31.7268	-153.937	32.6283	27.226	-150.457	21.3157	2.7502	-147.057	2.2321	-15.6538	-172.279	29.8827	19.1936	-172.944	21.2325	-1.04202	-174.495	-0.892294	-22.3308	-194.879	26.5906	28.691	-191.074	18.7412	7.38779	-191.316	3.43918	-15.6592	-207.82	20.7408	44.5218	-212.392	12.2327	20.6666	-212.62	6.75087	5.20186	-193.956	41.3491	73.0254	-191.815	48.8016	96.8822	-166.25	49.0033	81.0358	
2	0.0166667	-144.009	29.94	96.642	-129.871	16.9669	77.8192	-122.384	7.46241	51.3729	-121.805	-1.57902	36.679	-148.648	31.9051	24.0708	-150.318	22.1459	5.20525	-142.85	6.05461	-12.8886	-174.684	30.874	22.5047	-173.116	20.4497	-1.58073	-171.659	1.89343	-21.6464	-189.77	27.7023	30.5002	-191.255	16.7031	3.6314	-192.306	3.89689	-14.4094	-209.565	21.4295	42.935	-212.446	12.5669	22.9774	-210.5	4.93782	6.10758	-194.75	42.2627	72.4025	-191.165	47.4736	96.8414	-168.043	49.0272	83.9193	
3	0.025	-140.2	30.1527	91.7693	-130.225	16.7306	74.3305	-123.316	8.11787	52.9183	-119.684	-1.46165	37.0284	-150.925	31.9371	24.4824	-145.463	21.6553	1.76643	-147.682	6.86755	-12.3625	-171.823	31.3334	23.554	-172.749	19.1962	-3.63374	-173.506	0.186419	-21.8686	-189.074	27.5918	27.5239	-191.635	17.2467	4.47478	-189.746	7.03271	-10.8548	-204.556	21.6493	43.9022	-208.055	15.033	22.1928	-210.817	6.83201	4.67973	-192.273	41.0047	69.5399	-194.405	46.9762	95.5407	-165.955	49.1344	80.8745	
4	0.0333333	-143.855	29.9669	94.3708	-128.293	17.1724	71.2466	-119.881	8.50026	52.6094	-117.834	-1.48761	32.6896	-147.242	35.9181	26.8082	-146.094	27.3103	4.62978	-141.777	10.8668	-14.3017	-168.636	33.9254	16.8424	-168.479	19.2722	-6.36339	-169.295	1.12106	-21.088	-192.476	28.6152	27.6468	-188.597	18.7818	1.52662	-188.143	1.95233	-14.0359	-209.15	22.2575	40.584	-205.857	16.9361	21.8491	-208.291	5.66783	2.89518	-192.312	43.8787	69.2885	-187.859	48.9216	93.6049	-165.711	49.0372	80.2734	
5	0.0416667	-143.065	33.4637	88.5902	-129.35	20.6757	70.0407	-123.445	12.407	46.8036	-119.777	1.29215	28.6797	-146.533	41.8418	26.9377	-148.67	31.3047	-0.335464	-142.19	17.0051	-15.9324	-172.475	38.1196	16.8145	-168.948	24.9868	-6.37539	-170	-2.40563	-16.2541	-192.677	33.9645	26.1063	-189.843	20.382	0.557918	-185.843	1.17264	-8.78048	-206.615	28.2567	39.0326	-205.406	21.2677	20.62	-202.951	2.79751	5.08054	-189.126	47.6817	71.7704	-190.339	50.9313	94.592	-162.598	53.0817	80.7475	
6	0.05	-140.362	38.8073	86.8661	-127.406	24.0136	66.3628	-125.602	14.6161	48.5834	-124.939	5.26837	27.5398	-151.239	48.8332	20.8276	-145.98	42.8403	1.49489	-144.682	26.6112	-18.4176	-173.598	42.974	14.753	-168.253	28.2059	-5.60672	-163.892	-5.65519	-4.3548	-187.543	38.9587	26.2878	-186.14	21.6189	3.18454	-174.351	-5.54405	4.29896	-208.048	30.8359	36.9432	-202.647	16.5253	15.7684	-192.067	-2.51812	12.2192	-188.238	50.2236	70.8737	-192.273	54.7601	95.0782	-166.665	59.5728	80.7047	
7	0.0583333	-140.37	41.259	89.2911	-128.513	24.3751	66.6992	-123.879	15.0035	41.4814	-125.648	3.2534	23.2661	-150.603	54.6754	20.9506	-145.455	47.4696	-4.18076	-145.434	35.4626	-21.4795	-170.567	43.0921	13.1096	-165.835	22.5832	-3.4451	-154.804	-5.31356	15.2787	-185.595	37.2772	22.2146	-182.59	12.7892	7.30195	-171.315	-6.05425	22.0592	-205.388	29.2428	31.081	-196.333	13.4257	18.1421	-178.964	-5.85531	29.9448	-193.944	51.5357	68.7426	-192.52	55.8406	91.5646	-164.517	63.5065	78.4036	
8	0.0666667	-140.762	40.4645	84.2876	-131.058	22.191	61.8096	-130.124	12.3512	41.9289	-134.838	-0.370259	19.8631	-150.275	56.346	22.089	-146.586	50.8771	-5.99645	-139.38	39.6512	-26.9689	-168.084	40.9458	14.8344	-162.729	11.3896	2.90585	-154.194	-2.7398	28.912	-184.026	29.8107	19.253	-175.431	4.2412	15.2744	-163.644	-2.51756	41.6586	-202.421	24.4616	32.8161	-188.516	5.52923	23.0096	-173.409	-4.04478	44.8298	-191.184	51.4313	64.9347	-193.346	54.4206	92.829	-166.368	61.4203	77.8574	
9	0.075	-142.67	39.5065	85.2454	-127.929	18.0767	61.4984	-126.936	6.92253	42.6221	-138.513	-5.10713	25.1764	-148.47	54.9187	20.3499	-148.401	51.0298	-1.17807	-142.815	43.8565	-25.0397	-163.903	34.6713	13.3689	-154.933	6.99988	8.28883	-151.445	-1.36119	38.4464	-177.092	22.5128	20.2562	-170.964	-3.10185	24.6148	-163.118	-0.454551	53.1668	-194.818	19.5988	34.0222	-180.47	-3.35032	34.6079	-170.055	1.40916	56.6086	-193.985	49.305	64.127	-193.21	53.7001	88.0147	-165.89	61.1971	77.9878	
10	0.0833333	-139.89	38.1133	83.4932	-129.45	15.4692	63.3391	-130.079	1.76355	42.7976	-140.25	-12.5182	24.1696	-149.531	50.597	19.5582	-144.177	48.069	-1.07701	-141.839	41.6535	-25.9892	-162.722	27.5536	13.9719	-153.438	2.1664	13.8059	-153.721	-2.82309	45.8309	-180.406	14.0556	25.8161	-166.737	-7.6936	33.9501	-160.978	1.67679	62.8436	-191.405	12.6691	36.6107	-175.422	-7.40824	43.7924	-169.228	3.88609	65.3004	-193.202	46.4599	64.2582	-191.746	50.4709	87.2629	-167.711	59.4446	76.7134	
11	0.0916667	-142.233	34.2668	87.0018	-125.847	10.7611	66.05	-127.528	-3.32856	45.6582	-141.571	-15.8759	30.1252	-146.569	47.2429	19.6748	-142.261	43.5113	-2.65977	-140.384	38.9527	-21.3983	-161.886	24.3119	17.6808	-153.506	-5.19646	18.5604	-151.15	-3.10172	52.6122	-177.965	11.0103	29.2411	-162.509	-9.52405	38.3961	-161.188	-2.57991	65.913	-185.457	4.29048	37.3795	-173.31	-9.19389	48.1974	-169.982	4.37998	73.1184	-192.167	44.6346	62.3701	-193.417	48.4982	89.3916	-163.17	55.3866	75.4594	
